# File created by Blade
# Date/Time:  Thu Jan 15 19:03:44 2015
#---------------------------------------------------------
:version 1.10
:name HOM
:units
  mass 1.0
  length 1.000000
  angle deg
:documentation
     Acclaim Skeleton File
:root
   axis xyz
   order TX TY TZ RX RY RZ
   position 0.000000 0.000000 0.000000
   orientation 0 0 0
:bonedata
   begin
      id 1
      name Spine_dum
      direction 0.000000 1.000000 0.000000
      length 4.354460
      axis 0.0 0.0 0.0 xyz
   end
   begin
      id 2
      name LeftUpLeg_dum
      direction 1.000000 0.000000 0.000000
      length 4.291077
      axis 0.0 0.0 0.0 xyz
   end
   begin
      id 3
      name RightUpLeg_dum
      direction -1.000000 0.000000 0.000000
      length 4.291077
      axis 0.0 0.0 0.0 xyz
   end
   begin
      id 4
      name Spine
      direction 0.000000 1.000000 0.000000
      length 0.000000
      axis 0.0 0.0 0.0 xyz
      dof rx ry rz
   end
   begin
      id 5
      name Spine_dum1
      direction 0.000000 1.000000 0.000000
      length 16.581769
      axis 0.0 0.0 0.0 xyz
   end
   begin
      id 6
      name Spine_dum2
      direction 0.000000 1.000000 0.000000
      length 12.903700
      axis 0.0 0.0 0.0 xyz
   end
   begin
      id 7
      name Spine_dum3
      direction 0.000000 1.000000 0.000000
      length 12.903700
      axis 0.0 0.0 0.0 xyz
   end
   begin
      id 8
      name Head
      direction 0.000000 1.000000 0.000000
      length 4.527550
      axis 0.0 0.0 0.0 xyz
      dof rx ry rz
   end
   begin
      id 9
      name LeftShoulder
      direction 1.000000 0.000000 0.000000
      length 6.942033
      axis 0.0 0.0 -90.0 xyz
      dof rx ry rz
   end
   begin
      id 10
      name LeftArm
      direction 1.000000 0.000000 0.000000
      length 11.010391
      axis 0.0 0.0 -90.0 xyz
      dof rx ry rz
   end
   begin
      id 11
      name LeftForeArm
      direction 1.000000 0.000000 0.000000
      length 8.054994
      axis 0.0 0.0 -90.0 xyz
      dof rz ry rx
   end
   begin
      id 12
      name LeftHand
      direction 0.000000 0.000000 0.000000
      length 0.000000
      axis 0.0 0.0 -90.0 xyz
      dof rx ry rz
   end
   begin
      id 13
      name LeftHand_dum1
      direction 0.000000 0.000000 0.000000
      length 0.000000
      axis 0.0 0.0 -90.0 xyz
   end
   begin
      id 14
      name LeftHand_dum2
      direction 1.000000 0.000000 0.000000
      length 3.937000
      axis 0.0 0.0 -90.0 xyz
   end
   begin
      id 15
      name LeftHandThumb1
      direction 0.000000 0.000000 1.000000
      length 3.937000
      axis 0.0 0.0 -90.0 xyz
      dof rx ry rz
   end
   begin
      id 16
      name RightShoulder
      direction -1.000000 0.000000 0.000000
      length 6.942033
      axis 0.0 0.0 90.0 xyz
      dof rx ry rz
   end
   begin
      id 17
      name RightArm
      direction -1.000000 0.000000 0.000000
      length 11.010391
      axis 0.0 0.0 90.0 xyz
      dof rx ry rz
   end
   begin
      id 18
      name RightForeArm
      direction -1.000000 0.000000 0.000000
      length 8.054994
      axis 0.0 0.0 90.0 xyz
      dof rz ry rx
   end
   begin
      id 19
      name RightHand
      direction 0.000000 0.000000 0.000000
      length 0.000000
      axis 0.0 0.0 90.0 xyz
      dof rx ry rz
   end
   begin
      id 20
      name RightHand_dum1
      direction 0.000000 0.000000 0.000000
      length 0.000000
      axis 0.0 0.0 90.0 xyz
   end
   begin
      id 21
      name RightHand_dum2
      direction -1.000000 0.000000 0.000000
      length 3.937000
      axis 0.0 0.0 90.0 xyz
   end
   begin
      id 22
      name RightHandThumb1
      direction 0.000000 0.000000 1.000000
      length 3.937000
      axis 0.0 0.0 90.0 xyz
      dof rx ry rz
   end
   begin
      id 23
      name LeftUpLeg
      direction 0.000000 -1.000000 0.000000
      length 17.039958
      axis 0.0 0.0 0.0 xyz
      dof rx ry rz
   end
   begin
      id 24
      name LeftLeg
      direction 0.000000 -1.000000 0.000000
      length 16.939743
      axis 0.0 0.0 0.0 xyz
      dof rx ry rz
   end
   begin
      id 25
      name LeftFoot
      direction 0.000000 -0.258819 0.965926
      length 5.235044
      axis 15.0 0.0 0.0 xyz
      dof rx ry rz
   end
   begin
      id 26
      name LeftToeBase
      direction 0.000000 0.000000 1.000000
      length 2.952750
      axis 0.0 0.0 0.0 xyz
      dof rx ry rz
   end
   begin
      id 27
      name RightUpLeg
      direction 0.000000 -1.000000 0.000000
      length 17.039958
      axis 0.0 0.0 0.0 xyz
      dof rx ry rz
   end
   begin
      id 28
      name RightLeg
      direction 0.000000 -1.000000 0.000000
      length 16.939743
      axis 0.0 0.0 0.0 xyz
      dof rx ry rz
   end
   begin
      id 29
      name RightFoot
      direction 0.000000 -0.258819 0.965926
      length 5.235044
      axis 15.0 0.0 0.0 xyz
      dof rx ry rz
   end
   begin
      id 30
      name RightToeBase
      direction 0.000000 0.000000 1.000000
      length 2.952750
      axis 0.0 0.0 0.0 xyz
      dof rx ry rz
   end
:hierarchy
   begin
      root Spine_dum LeftUpLeg_dum RightUpLeg_dum
      Spine_dum Spine
      LeftUpLeg_dum LeftUpLeg
      RightUpLeg_dum RightUpLeg
      Spine Spine_dum1 Spine_dum2 Spine_dum3
      Spine_dum1 Head
      Spine_dum2 LeftShoulder
      Spine_dum3 RightShoulder
      LeftShoulder LeftArm
      LeftArm LeftForeArm
      LeftForeArm LeftHand
      LeftHand LeftHand_dum1 LeftHand_dum2
      LeftHand_dum1 LeftHandThumb1
      RightShoulder RightArm
      RightArm RightForeArm
      RightForeArm RightHand
      RightHand RightHand_dum1 RightHand_dum2
      RightHand_dum1 RightHandThumb1
      LeftUpLeg LeftLeg
      LeftLeg LeftFoot
      LeftFoot LeftToeBase
      RightUpLeg RightLeg
      RightLeg RightFoot
      RightFoot RightToeBase
   end

# File created by Blade
# Date/Time:  Thu Jan 15 19:03:33 2015
# Frame Rate: 120.000 fps
#------------------------------------------------------
:FULLY-SPECIFIED
:DEGREES
486
root 2.818945 35.707233 -9.655625 -169.424386 -45.495514 -183.182093
Spine -14.790003 39.261984 -12.326285
Head 11.132084 20.321638 7.035018
LeftShoulder -14.550802 11.354425 10.989336
LeftArm -8.806521 -49.077958 -12.899814
LeftForeArm 0.000000 19.261115 21.042199
LeftHand 6.664817 -0.000000 7.579292
LeftHandThumb1 -26.253704 33.147579 0.000000
RightShoulder -18.259572 2.958120 -25.246457
RightArm 5.335298 28.829711 21.318709
RightForeArm -0.000000 -49.540804 24.141896
RightHand 6.507977 -0.000000 -8.570648
RightHandThumb1 -24.326973 -32.862282 -0.000000
LeftUpLeg -13.470500 -18.310279 -0.030877
LeftLeg 3.231560 -0.000000 -0.000000
LeftFoot -8.514937 6.765904 -9.935811
LeftToeBase 22.481250 -0.000000 -0.000000
RightUpLeg -2.771870 -32.716373 3.197061
RightLeg 2.301031 -0.000000 -0.000000
RightFoot -24.950594 -42.974019 18.054487
RightToeBase 18.825782 -0.000000 -0.000000
487
root 2.826413 35.706504 -9.655799 -169.471689 -45.757557 -183.209537
Spine -14.881147 40.018441 -12.452160
Head 11.288909 20.166910 6.961402
LeftShoulder -14.694622 11.496045 10.928685
LeftArm -9.076889 -49.264960 -12.781349
LeftForeArm 0.000000 19.097176 20.859432
LeftHand 6.846690 -0.000000 7.486066
LeftHandThumb1 -26.253704 33.147579 0.000000
RightShoulder -18.013707 2.905173 -25.270211
RightArm 5.663441 28.726539 21.599767
RightForeArm -0.000000 -49.628575 24.305716
RightHand 6.406698 -0.000000 -8.508747
RightHandThumb1 -24.326973 -32.862282 -0.000000
LeftUpLeg -13.463008 -18.407552 -0.040701
LeftLeg 3.287367 -0.000000 -0.000000
LeftFoot -8.437727 6.622873 -9.930092
LeftToeBase 22.436256 -0.000000 -0.000000
RightUpLeg -2.670690 -32.803191 3.176467
RightLeg 2.298052 -0.000000 -0.000000
RightFoot -25.002087 -43.093551 18.118570
RightToeBase 18.816413 -0.000000 -0.000000
488
root 2.833172 35.705531 -9.656140 -169.523672 -46.051299 -183.243947
Spine -14.960204 40.792618 -12.579548
Head 11.420647 19.955207 6.896128
LeftShoulder -14.739102 11.596214 10.874694
LeftArm -9.430305 -49.111588 -12.617631
LeftForeArm 0.000000 18.613237 20.721578
LeftHand 6.956997 0.000000 7.474712
LeftHandThumb1 -26.253704 33.147579 0.000000
RightShoulder -17.830478 2.866044 -25.271731
RightArm 5.936630 28.529857 21.790157
RightForeArm -0.000000 -49.720272 24.565137
RightHand 6.500823 -0.000000 -8.556511
RightHandThumb1 -24.326973 -32.862282 -0.000000
LeftUpLeg -13.460525 -18.477695 -0.061239
LeftLeg 3.371708 -0.000000 -0.000000
LeftFoot -8.346597 6.412930 -9.885882
LeftToeBase 22.349506 -0.000000 -0.000000
RightUpLeg -2.546042 -32.918070 3.146374
RightLeg 2.283674 -0.000000 -0.000000
RightFoot -25.070338 -43.193326 18.206806
RightToeBase 18.778668 -0.000000 -0.000000
489
root 2.842168 35.704225 -9.656604 -169.580261 -46.360609 -183.267465
Spine -15.058424 41.514924 -12.688442
Head 11.606049 19.765303 6.853835
LeftShoulder -14.779730 11.681680 10.894913
LeftArm -9.778931 -49.202047 -12.535226
LeftForeArm -0.000000 18.480019 20.576859
LeftHand 6.904911 -0.000000 7.727583
LeftHandThumb1 -26.253704 33.147579 0.000000
RightShoulder -17.570263 2.843757 -25.304982
RightArm 6.215094 28.562114 22.086996
RightForeArm -0.000000 -49.860636 24.718475
RightHand 6.720550 -0.000000 -8.703458
RightHandThumb1 -24.326973 -32.862282 -0.000000
LeftUpLeg -13.460244 -18.571198 -0.070157
LeftLeg 3.443923 -0.000000 -0.000000
LeftFoot -8.264413 6.230531 -9.838723
LeftToeBase 22.009035 -0.000000 -0.000000
RightUpLeg -2.435094 -33.122630 3.132790
RightLeg 2.281893 -0.000000 -0.000000
RightFoot -25.099090 -43.228294 18.248081
RightToeBase 18.779967 -0.000000 -0.000000
490
root 2.848730 35.703307 -9.656411 -169.616556 -46.676968 -183.294506
Spine -15.179073 42.238791 -12.813095
Head 11.787382 19.635899 6.790636
LeftShoulder -14.825874 11.805276 10.867374
LeftArm -10.081790 -49.299779 -12.451085
LeftForeArm 0.000000 18.226741 20.447453
LeftHand 6.858788 -0.000000 7.895228
LeftHandThumb1 -26.253704 33.147579 0.000000
RightShoulder -17.319827 2.640349 -25.233612
RightArm 6.486926 28.530705 22.250040
RightForeArm -0.000000 -49.787606 24.959311
RightHand 6.792936 -0.000000 -8.807397
RightHandThumb1 -24.326973 -32.862282 -0.000000
LeftUpLeg -13.477091 -18.697927 -0.074302
LeftLeg 3.515480 -0.000000 -0.000000
LeftFoot -8.215906 6.096142 -9.818301
LeftToeBase 22.382900 -0.000000 -0.000000
RightUpLeg -2.319154 -33.256393 3.123855
RightLeg 2.238355 -0.000000 -0.000000
RightFoot -25.150333 -43.333211 18.335772
RightToeBase 18.745704 -0.000000 -0.000000
491
root 2.854770 35.701995 -9.658243 -169.667750 -47.025828 -183.327644
Spine -15.260989 42.928135 -12.915790
Head 11.913454 19.456599 6.750512
LeftShoulder -14.880835 11.885520 10.876404
LeftArm -10.352296 -49.429788 -12.420561
LeftForeArm -0.000000 18.022560 20.287227
LeftHand 7.081658 -0.000000 7.865857
LeftHandThumb1 -26.253704 33.147579 0.000000
RightShoulder -17.149040 2.700263 -25.275795
RightArm 6.772154 28.444612 22.505876
RightForeArm -0.000000 -49.750156 25.060541
RightHand 6.926389 0.000000 -8.829599
RightHandThumb1 -24.326973 -32.862282 -0.000000
LeftUpLeg -13.482710 -18.835466 -0.085696
LeftLeg 3.605659 -0.000000 -0.000000
LeftFoot -8.130725 5.929211 -9.768645
LeftToeBase 22.275716 -0.000000 -0.000000
RightUpLeg -2.161921 -33.431328 3.098788
RightLeg 2.175905 -0.000000 -0.000000
RightFoot -25.181782 -43.434361 18.403518
RightToeBase 18.732005 -0.000000 -0.000000
